:SAMPLES-PER-SECOND 30
:FULLY-SPECIFIED
:DEGREES
211
root  23.2318 24.0517 -4.31378 20.549 -26.9536 -3.25261
RightUpLeg  -58.0563 -7.29573 -34.5757
RightLeg  57.9535 -4.06777 -5.70592
RightFoot  -8.1776 0.110937 1.92952
RightToes  -42.6567 -0.240046 -0.329632
Spine  13.9188 -4.71022 3.39321
Spine1  20.9281 -13.3037 9.60304
HEad  -47.3811 -32.5317 53.3952
LeftShoulder1  0 -2.42657e-020 -4.95415e-022
LeftArm  -28.592 -44.2078 -56.5576
LeftForeArm  27.3712 -29.6261 -5.74797
LeftHand  -0.144222 -6.20267 2.29398
RightShoulder  0 2.42657e-020 1.07489e-018
RightArm  -54.0849 29.4113 49.209
RightForeArm  71.0181 44.91 10.0529
RightHand  -8.36177 14.9838 -57.7864
LeftUpLeg  -60.2732 1.46077 28.4792
LeftLeg  77.6896 -3.00642 -10.3941
LeftFoot  -26.2956 0.671897 2.87585
LeftToes  -50.4439 1.28829e-006 1.15665e-007
212
root  22.0368 23.8196 -4.38912 20.1055 -27.3483 -2.61771
RightUpLeg  -57.3074 -8.69159 -35.5653
RightLeg  54.54 -5.70293 -7.01839
RightFoot  -7.20821 0.088502 1.78274
RightToes  -43.4 -0.246198 -0.333512
Spine  13.2469 -5.44964 3.25217
Spine1  19.9981 -14.9225 9.18737
HEad  -46.3518 -31.8656 51.4151
LeftShoulder1  0 -2.42657e-020 -4.95415e-022
LeftArm  -32.7128 -45.9161 -50.0633
LeftForeArm  24.5525 -33.5734 -6.71675
LeftHand  -0.152262 -5.79008 2.64336
RightShoulder  0 2.42657e-020 1.07489e-018
RightArm  -61.5665 32.4526 33.7247
RightForeArm  69.0312 46.4724 10.6368
RightHand  -8.17004 14.6609 -57.7262
LeftUpLeg  -57.8045 2.45633 29.7759
LeftLeg  76.0562 -3.32643 -10.3715
LeftFoot  -26.2819 0.714854 3.06128
LeftToes  -52.8566 1.28829e-006 1.15665e-007
213
root  20.5019 23.7795 -4.45937 19.1845 -29.0063 -1.67952
RightUpLeg  -57.3927 -12.6956 -32.5422
RightLeg  53.138 -4.15962 -4.90123
RightFoot  -4.78376 0.0177173 0.801821
RightToes  -48.1494 -0.286633 -0.35638
Spine  11.94 -5.66879 2.3181
Spine1  18.6919 -14.9544 6.96262
HEad  -45.3214 -31.1169 49.6916
LeftShoulder1  0 -2.42657e-020 -4.95415e-022
LeftArm  -37.8122 -44.3183 -40.6467
LeftForeArm  21.7045 -41.1024 -8.85283
LeftHand  -0.249239 -5.29814 5.01953
RightShoulder  0 2.42657e-020 1.07489e-018
RightArm  -72.6678 33.3367 18.0589
RightForeArm  69.6459 47.1563 10.8982
RightHand  -8.39928 15.0348 -57.8375
LeftUpLeg  -52.6888 4.1882 30.8486
LeftLeg  72.2069 -3.86221 -9.73312
LeftFoot  -25.6654 0.745569 3.27213
LeftToes  -55.1891 1.28829e-006 1.15665e-007
214
root  18.3058 24.0045 -4.53426 18.097 -31.2239 -2.83737
RightUpLeg  -56.1723 -12.1557 -28.7784
RightLeg  52.6759 0.066098 0.0208337
RightFoot  1.87474 0.00789214 -0.104766
RightToes  -58.5644 -0.381044 -0.39435
Spine  10.0766 -5.29862 1.1883
Spine1  16.6532 -13.2414 4.23607
HEad  -42.7116 -29.8883 46.6474
LeftShoulder1  0 -2.42657e-020 -4.95415e-022
LeftArm  -42.879 -38.5278 -29.0129
LeftForeArm  24.6344 -53.8404 -13.9988
LeftHand  -0.362725 -5.42038 7.29058
RightShoulder  0 2.42657e-020 1.07489e-018
RightArm  -83.5394 33.0362 5.12077
RightForeArm  68.0484 50.9508 12.5077
RightHand  -8.21154 15.6869 -54.6957
LeftUpLeg  -43.6937 6.29513 34.4063
LeftLeg  65.4138 -4.87333 -8.99054
LeftFoot  -23.6898 0.739292 3.52391
LeftToes  -57.5665 1.28829e-006 1.15665e-007
215
root  15.5868 24.7765 -4.30887 15.8769 -32.7165 -5.14027
RightUpLeg  -54.4553 -10.9852 -22.4423
RightLeg  56.5262 3.16419 4.09619
RightFoot  5.00648 0.00552982 0.251024
RightToes  -63.3033 -0.425953 -0.405824
Spine  9.36075 -5.13346 0.750397
Spine1  15.8637 -11.8324 2.81523
HEad  -39.4542 -28.0994 43.9148
LeftShoulder1  0 -2.42657e-020 -4.95415e-022
LeftArm  -50.2111 -31.48 -16.6021
LeftForeArm  35.4131 -66.917 -24.5822
LeftHand  -0.442141 -6.12558 7.888
RightShoulder  0 2.42657e-020 1.07489e-018
RightArm  -94.5198 32.2331 -9.18535
RightForeArm  67.7976 57.0156 15.744
RightHand  -7.91689 16.5277 -50.5971
LeftUpLeg  -29.9822 4.82533 39.0877
LeftLeg  52.8454 -5.66689 -6.52588
LeftFoot  -19.5045 0.478577 2.78396
LeftToes  -60.063 1.28829e-006 1.15665e-007
216
root  12.8388 26.2499 -3.63336 12.0956 -32.1138 -3.49944
RightUpLeg  -48.0131 -14.5967 -19.3146
RightLeg  56.9695 5.42548 7.15686
RightFoot  1.76594 0.00470079 0.072511
RightToes  -66.3182 -0.454957 -0.411176
Spine  7.97594 -5.68205 -0.687313
Spine1  13.8737 -12.5225 0.554294
HEad  -33.878 -29.7284 40.9255
LeftShoulder1  0 -2.42657e-020 -4.95415e-022
LeftArm  -56.8812 -27.3588 -5.89608
LeftForeArm  43.198 -72.8441 -35.1152
LeftHand  -0.379143 -5.84 7.06107
RightShoulder  0 2.42657e-020 1.07489e-018
RightArm  -101.708 28.5695 -22.4124
RightForeArm  71.4521 62.6519 19.9382
RightHand  -7.30787 17.1327 -45.593
LeftUpLeg  -14.7035 1.31921 38.7077
LeftLeg  31.9161 -5.51337 -2.95729
LeftFoot  -8.15074 0.0687682 0.965152
LeftToes  -62.7961 1.28829e-006 1.15665e-007
217
root  10.3373 28.5835 -2.723 9.25476 -31.0195 -2.57817
RightUpLeg  -36.9363 -18.0496 -16.9177
RightLeg  48.9386 8.96615 8.89898
RightFoot  2.75547 -0.00158568 0.443367
RightToes  -69.0867 -0.481805 -0.414741
Spine  6.48769 -5.52657 -1.41492
Spine1  11.5921 -11.9663 -1.15683
HEad  -29.0181 -33.1245 38.8786
LeftShoulder1  0 -2.42657e-020 -4.95415e-022
LeftArm  -61.9187 -26.7146 3.25999
LeftForeArm  45.3944 -74.4964 -39.8264
LeftHand  -0.228481 -5.11028 4.75312
RightShoulder  0 2.42657e-020 1.07489e-018
RightArm  -105.876 22.9933 -33.9171
RightForeArm  72.5717 61.8413 19.2254
RightHand  -7.29085 17.3612 -44.9459
LeftUpLeg  1.41423 12.0725 38.5464
LeftLeg  6.84884 -10.6169 -0.584857
LeftFoot  17.7134 0.529542 -3.39742
LeftToes  -62.8039 1.28829e-006 1.15665e-007
218
root  8.74679 31.6614 -1.92691 9.49435 -27.6265 0.357529
RightUpLeg  -25.131 -21.7332 -17.0249
RightLeg  31.0276 12.577 6.41937
RightFoot  12.094 -0.268318 2.90987
RightToes  -70.8654 -0.499133 -0.416345
Spine  4.11259 -5.74488 -1.67822
Spine1  7.73045 -12.1731 -3.17125
HEad  -26.6901 -36.2439 37.4493
LeftShoulder1  0 -2.42657e-020 -4.95415e-022
LeftArm  -65.5207 -24.8969 8.20844
LeftForeArm  57.8254 -76.5942 -48.2501
LeftHand  -0.357459 -6.06898 6.37263
RightShoulder  0 2.42657e-020 1.07489e-018
RightArm  -108.044 15.5655 -43.867
RightForeArm  69.9384 60.136 17.8744
RightHand  -6.82934 18.0771 -40.7647
LeftUpLeg  2.67041 34.2386 34.6612
LeftLeg  -0.370954 -24.6912 1.6953
LeftFoot  35.4965 5.11627 -15.8929
LeftToes  -33.6338 1.28829e-006 1.15665e-007
219
root  7.4633 35.0077 -1.36164 9.35608 -25.573 3.87128
RightUpLeg  -12.3974 -14.5136 -18.3534
RightLeg  7.4466 5.73301 0.378338
RightFoot  31.708 -0.706397 2.86453
RightToes  -63.2582 -0.425521 -0.405732
Spine  2.50317 -5.59309 -3.14385
Spine1  5.06409 -11.7816 -5.56253
HEad  -25.6675 -39.6246 38.7373
LeftShoulder1  0 -2.42657e-020 -4.95415e-022
LeftArm  -66.9847 -22.7652 8.11431
LeftForeArm  68.0966 -78.0548 -57.2546
LeftHand  -0.443738 -6.17869 7.84648
RightShoulder  0 2.42657e-020 1.07489e-018
RightArm  -107.477 9.79603 -50.6305
RightForeArm  65.5234 56.9007 15.6815
RightHand  -7.1703 19.5162 -39.6772
LeftUpLeg  0.132754 15.7923 24.8289
LeftLeg  4.53603 -23.7868 -0.345062
LeftFoot  32.8525 4.14652 -14.0009
LeftToes  -24.0986 1.28829e-006 1.15665e-007
220
root  6.21544 38.156 -0.971726 9.13139 -25.7502 7.65575
RightUpLeg  -10.4851 -21.4101 -17.1046
RightLeg  -0.0517268 7.73572 -0.502502
RightFoot  44.9085 -2.04399 5.32071
RightToes  -46.2552 -0.27028 -0.347662
Spine  1.16758 -5.22013 -6.65752
Spine1  2.96767 -10.7404 -9.54123
HEad  -21.3774 -42.1014 39.9001
LeftShoulder1  0 -2.42657e-020 -4.95415e-022
LeftArm  -66.374 -20.3491 8.58999
LeftForeArm  66.0508 -77.842 -55.6731
LeftHand  -0.432692 -6.25155 7.54925
RightShoulder  0 2.42657e-020 1.07489e-018
RightArm  -108.048 8.62113 -49.2588
RightForeArm  67.3592 57.8367 16.2703
RightHand  -7.0671 18.9475 -40.256
LeftUpLeg  -0.151234 11.7912 16.2401
LeftLeg  7.41565 -25.8247 -1.6292
LeftFoot  44.0566 8.10086 -19.8542
LeftToes  -30.4595 1.28829e-006 1.15665e-007
221
root  4.84895 40.8743 -0.711386 8.84457 -28.7309 7.2242
RightUpLeg  -10.1949 -16.5817 -13.2688
RightLeg  5.08043 7.41918 0.182497
RightFoot  45.4681 -2.00861 5.16889
RightToes  -43.5831 -0.24772 -0.334455
Spine  0.306261 -3.94466 -6.72619
Spine1  1.2033 -8.14969 -10.5958
HEad  -19.2201 -43.5052 38.3336
LeftShoulder1  0 -2.42657e-020 -4.95415e-022
LeftArm  -62.3715 -15.3784 4.72909
LeftForeArm  65.3887 -77.1442 -51.1982
LeftHand  -0.481979 -7.36476 7.11511
RightShoulder  0 2.42657e-020 1.07489e-018
RightArm  -109.358 11.073 -48.5663
RightForeArm  65.3458 56.0299 15.1555
RightHand  -6.69851 18.6166 -38.9403
LeftUpLeg  2.37282 15.6663 13.5161
LeftLeg  8.67685 -27.7829 -2.33385
LeftFoot  44.574 9.05416 -21.8674
LeftToes  -34.8558 1.28829e-006 1.15665e-007
222
root  3.67182 43.2361 -0.555415 7.6468 -30.5126 6.52835
RightUpLeg  -8.06869 -11.5467 -10.2742
RightLeg  10.3143 7.66833 0.891025
RightFoot  48.5543 -2.4069 5.71077
RightToes  -42.1137 -0.235585 -0.326748
Spine  0.559539 -2.85224 -6.07659
Spine1  1.55705 -5.89703 -11.3006
HEad  -21.8315 -42.6184 38.0363
LeftShoulder1  0 -2.42657e-020 -4.95415e-022
LeftArm  -58.14 -9.65366 -2.35775
LeftForeArm  57.7735 -75.3244 -42.7357
LeftHand  -0.474708 -7.20779 7.16321
RightShoulder  0 2.42657e-020 1.07489e-018
RightArm  -109.736 12.2973 -47.9614
RightForeArm  62.2161 51.7326 12.8928
RightHand  -6.74199 18.6469 -39.116
LeftUpLeg  4.49822 11.8359 10.3481
LeftLeg  6.72315 -26.264 -1.34756
LeftFoot  41.2627 7.24117 -19.0802
LeftToes  -26.6058 1.28829e-006 1.15665e-007
223
root  2.45293 45.1256 -0.478577 7.22067 -29.0061 7.16852
RightUpLeg  -7.0284 -8.15652 -8.16055
RightLeg  13.4081 8.17305 1.39772
RightFoot  50.2675 -2.79085 6.32198
RightToes  -41.9536 -0.234274 -0.32589
Spine  0.179221 -2.26745 -6.73833
Spine1  0.782849 -4.67247 -13.195
HEad  -23.2374 -43.1079 37.4612
LeftShoulder1  0 -2.42657e-020 -4.95415e-022
LeftArm  -53.063 -9.26981 -9.56742
LeftForeArm  44.0652 -67.961 -25.9782
LeftHand  -0.418228 -7.15391 6.31908
RightShoulder  0 2.42657e-020 1.07489e-018
RightArm  -110.145 13.9613 -46.8225
RightForeArm  62.5516 44.455 9.91859
RightHand  -6.67537 19.3886 -37.3398
LeftUpLeg  3.20234 12.2676 7.1919
LeftLeg  5.47395 -24.6883 -0.749346
LeftFoot  38.5645 5.87619 -16.6921
LeftToes  -29.2675 1.28829e-006 1.15665e-007
